# xmcd
#
# Track frame offsets:
#	150
#	11295
#	31582
#	49852
#	68775
#	88307
#	101632
#	114912
#	128105
#	137692
#	156300
#	180370
#	206852
#	229012
#	244445
#
# Disc length: 3520 seconds
#
# Revision: 0
# Processed by: cddbd v1.4PL0 Copyright (c) Steve Scherf et al.
# Submitted via: dBpowerAMP V4.0
#
DISCID=c60dbe0f
DTITLE=H Bomb Ferguson - Wiggin' Out
DYEAR=1993
DGENRE=Blues
TTITLE0=Midnight Ramblin' Tonight
TTITLE1=Over You, Losin' My Mind
TTITLE2=Shake Your Apple Tree
TTITLE3=Heart In My Hand
TTITLE4=Meatloaf
TTITLE5=I Got A Love
TTITLE6=My Brown Frame Baby
TTITLE7=Go 'Head On
TTITLE8=Love Her, Don't Shove Her
TTITLE9=Don't Leave Me
TTITLE10=He Say, She Say
TTITLE11=Leavin' You Tomorrow
TTITLE12=Ha Ha Ha, I Don't Want You No More
TTITLE13=Foolin' Around
TTITLE14=Moon, Shine On Me
EXTD=
EXTT0=
EXTT1=
EXTT2=
EXTT3=
EXTT4=
EXTT5=
EXTT6=
EXTT7=
EXTT8=
EXTT9=
EXTT10=
EXTT11=
EXTT12=
EXTT13=
EXTT14=
PLAYORDER=
